<svg xmlns="http://www.w3.org/2000/svg" viewBox="0 0 800 360" role="img" aria-hidden="true">

<defs>
  <linearGradient id="bg" x1="0" y1="0" x2="1" y2="1">
    <stop offset="0" stop-color="#F7FBFA"/>
    <stop offset="1" stop-color="#E9F6F2"/>
  </linearGradient>
  <linearGradient id="accent" x1="0" y1="0" x2="1" y2="1">
    <stop offset="0" stop-color="#0F9F7A"/>
    <stop offset="1" stop-color="#132238"/>
  </linearGradient>
  <filter id="soft" x="-20%" y="-20%" width="140%" height="140%">
    <feDropShadow dx="0" dy="5" stdDeviation="7" flood-color="#132238" flood-opacity=".08"/>
  </filter>
</defs>
<rect width="800" height="360" fill="url(#bg)"/>
<circle cx="690" cy="65" r="115" fill="#D9F2EA" opacity=".72"/>
<circle cx="70" cy="330" r="130" fill="#EFF6F4"/>

<g filter="url(#soft)" transform="translate(170 70)">
  <rect x="0" y="45" width="460" height="210" rx="24" fill="#fff" stroke="#D8E8E3" stroke-width="3"/>
  <path d="M38 95h384l-18 132H56L38 95Z" fill="#F0F8F5"/>
  <path d="M132 102V52c0-47 196-47 196 0v50" fill="none" stroke="#132238" stroke-width="10" stroke-linecap="round"/>
  <path d="M95 145h270M95 184h200" stroke="#0F9F7A" stroke-width="10" stroke-linecap="round" opacity=".9"/>
</g>
<circle cx="665" cy="86" r="26" fill="#0F9F7A" opacity=".9"/>
<path d="M654 87h22M665 76v22" stroke="#fff" stroke-width="5" stroke-linecap="round"/>

</svg>