<svg xmlns="http://www.w3.org/2000/svg" viewBox="0 0 800 360" role="img" aria-hidden="true">

<defs>
  <linearGradient id="bg" x1="0" y1="0" x2="1" y2="1">
    <stop offset="0" stop-color="#F7FBFA"/>
    <stop offset="1" stop-color="#E9F6F2"/>
  </linearGradient>
  <linearGradient id="accent" x1="0" y1="0" x2="1" y2="1">
    <stop offset="0" stop-color="#0F9F7A"/>
    <stop offset="1" stop-color="#132238"/>
  </linearGradient>
  <filter id="soft" x="-20%" y="-20%" width="140%" height="140%">
    <feDropShadow dx="0" dy="5" stdDeviation="7" flood-color="#132238" flood-opacity=".08"/>
  </filter>
</defs>
<rect width="800" height="360" fill="url(#bg)"/>
<circle cx="690" cy="65" r="115" fill="#D9F2EA" opacity=".72"/>
<circle cx="70" cy="330" r="130" fill="#EFF6F4"/>

<g filter="url(#soft)" transform="translate(135 54)">
  <rect x="0" y="76" width="190" height="210" rx="18" fill="#fff" stroke="#D8E8E3" stroke-width="3"/>
  <rect x="230" y="0" width="260" height="286" rx="18" fill="#fff" stroke="#D8E8E3" stroke-width="3"/>
  <g fill="#DDF4ED">
    <rect x="35" y="112" width="42" height="42" rx="7"/><rect x="108" y="112" width="42" height="42" rx="7"/>
    <rect x="35" y="180" width="42" height="42" rx="7"/><rect x="108" y="180" width="42" height="42" rx="7"/>
    <rect x="270" y="45" width="54" height="48" rx="8"/><rect x="352" y="45" width="54" height="48" rx="8"/>
    <rect x="270" y="120" width="54" height="48" rx="8"/><rect x="352" y="120" width="54" height="48" rx="8"/>
  </g>
  <path d="M95 286v-52h64v52M325 286v-70h84v70" fill="none" stroke="#0F9F7A" stroke-width="8"/>
</g>

</svg>